<svg xmlns="http://www.w3.org/2000/svg" xmlns:xlink="http://www.w3.org/1999/xlink" width="52" height="52" viewBox="0 0 24 24" fill="none" stroke="white" stroke-width="1">
<g>
<path fill="white" stroke="none" d="M 24 18.171875 L 19.003906 13.171875 L 19.003906 17.144531 L 18.515625 17.144531 C 16.226562 17.144531 14.753906 15.796875 13.417969 13.914062 C 13.050781 14.511719 12.664062 15.136719 12.242188 15.757812 C 13.757812 17.683594 15.667969 19.199219 18.515625 19.199219 L 19.003906 19.199219 L 19.003906 23.167969 Z M 24 18.171875 "/>
<path fill="white" stroke="none" d="M 24 5.828125 L 19.003906 0.832031 L 19.003906 4.800781 L 18.515625 4.800781 C 14.164062 4.800781 12.003906 8.339844 10.09375 11.464844 C 8.230469 14.511719 6.625 17.144531 3.429688 17.144531 L 0 17.144531 L 0 19.199219 L 3.429688 19.199219 C 7.777344 19.199219 9.941406 15.660156 11.847656 12.535156 C 13.710938 9.488281 15.320312 6.855469 18.515625 6.855469 L 19.003906 6.855469 L 19.003906 10.828125 Z M 24 5.828125 "/>
<path fill="white" stroke="none" d="M 3.429688 4.800781 L 0 4.800781 L 0 6.855469 L 3.429688 6.855469 C 5.714844 6.855469 7.1875 8.207031 8.523438 10.089844 C 8.890625 9.488281 9.28125 8.863281 9.699219 8.242188 C 8.183594 6.316406 6.273438 4.800781 3.429688 4.800781 Z M 3.429688 4.800781 "/>
</g>
</svg>
